<?xml version="1.0" encoding="utf-8"?>
<!-- Svg Vector Icons : http://www.onlinewebfonts.com/icon -->
<!DOCTYPE svg PUBLIC "-//W3C//DTD SVG 1.1//EN" "http://www.w3.org/Graphics/SVG/1.1/DTD/svg11.dtd">
<svg version="1.1" xmlns="http://www.w3.org/2000/svg" xmlns:xlink="http://www.w3.org/1999/xlink" x="0px" y="0px" viewBox="0 0 1000 1000" enable-background="new 0 0 1000 1000" xml:space="preserve">
<metadata> Svg Vector Icons : http://www.onlinewebfonts.com/icon </metadata>
<g><path d="M990,758.8c0,37.8-27.3,68.3-72.4,67.5c-22.6-0.1-20.9,0.4-41.5,0c-36.2-0.8-33.8-22.7-45.6-67.5c-28.9-110.3-151.4-254.7-179.3-271.4c-73.6-44,19.8-14.7,19.8-156.3c0-36.3-8.3-82-23.1-112.7c-11.6-24-21.2-46.3,23.1-44.8c88,2.8,159.4,70.6,159.4,157.5c0,54.6-28,102.6-70.7,130.9c8.3,1.9,16.8,3.9,26.2,6.4C903.1,502.5,990,641.9,990,758.8L990,758.8L990,758.8z M756.6,836c-0.3,36.1-15.9,72.1-77.2,72.1c-138.1-0.1-525.3,0.5-592.2,0C12.4,907.6,10,870.7,10,836c0-166.8,113.8-316.3,266.6-359.3c-67.2-36-100.9-102.8-100.9-180.2c0-112.9,93.1-204.8,207.5-204.8s207.5,91.9,207.5,204.8c0,77.4-36.9,144.2-104.2,180.2C639.5,519.7,758.3,670.7,756.6,836L756.6,836L756.6,836z"/></g>
</svg>